<?xml version="1.0" standalone="no"?>
<!DOCTYPE svg PUBLIC "-//W3C//DTD SVG 20010904//EN"
 "http://www.w3.org/TR/2001/REC-SVG-20010904/DTD/svg10.dtd">
<svg version="1.0" xmlns="http://www.w3.org/2000/svg"
 width="512.000000pt" height="512.000000pt" viewBox="0 0 512.000000 512.000000"
 preserveAspectRatio="xMidYMid meet">
<metadata>
Created by potrace 1.14, written by Peter Selinger 2001-2017
</metadata>
<g transform="translate(0.000000,512.000000) scale(0.100000,-0.100000)"
fill="#000000" stroke="none">
<path d="M132 4843 c-52 -34 -60 -57 -35 -92 16 -20 18 -30 9 -44 -8 -13 -7
-24 5 -45 15 -26 15 -30 -2 -50 -21 -27 -15 -56 19 -82 29 -24 51 -25 78 -6
17 13 21 12 39 -4 11 -10 32 -20 47 -22 15 -2 37 -17 50 -33 12 -17 32 -38 43
-47 20 -16 19 -18 -50 -82 -38 -36 -75 -65 -81 -66 -6 0 -17 -13 -23 -28 -12
-29 -38 -59 -79 -90 l-23 -17 24 -23 24 -23 47 40 c26 23 58 44 72 47 15 4 23
12 20 19 -3 8 5 20 17 28 12 8 45 36 72 61 28 25 54 45 58 46 5 0 30 -22 57
-49 l49 -50 -57 -50 c-31 -28 -63 -51 -70 -51 -7 0 -10 -5 -6 -11 5 -8 -8 -9
-44 -4 -60 8 -88 -6 -98 -50 -23 -94 25 -146 126 -139 52 4 96 43 86 75 -3 11
-9 28 -12 39 -4 11 -2 20 4 20 6 0 36 25 67 55 30 30 57 55 60 55 7 0 905
-900 905 -906 0 -4 -20 -28 -43 -54 -51 -56 -103 -153 -142 -260 -43 -121 -40
-272 10 -406 40 -107 148 -231 271 -311 41 -27 74 -52 74 -56 0 -5 -4 -5 -10
-2 -5 3 -10 1 -10 -6 0 -8 -5 -7 -17 2 -9 8 -14 9 -11 4 4 -6 -1 -19 -9 -30
-12 -16 -14 -16 -10 -3 3 10 1 20 -6 24 -7 4 -9 4 -5 -1 4 -4 3 -16 -3 -27 -9
-16 -13 -17 -27 -6 -10 8 -13 9 -9 1 8 -13 -3 -22 -35 -28 -13 -3 -30 -13 -38
-22 -8 -10 -25 -18 -38 -17 -15 1 -21 -3 -18 -12 3 -9 0 -11 -11 -7 -12 5 -14
3 -8 -7 5 -8 4 -11 -3 -6 -6 3 -16 -2 -22 -11 -11 -17 -11 -17 -6 1 6 16 4 17
-9 6 -8 -7 -15 -9 -15 -5 0 5 -9 0 -20 -10 -11 -10 -17 -23 -13 -29 4 -6 0 -5
-9 2 -12 10 -18 9 -28 -3 -7 -8 -16 -12 -21 -9 -5 3 -6 -3 -2 -12 5 -13 3 -16
-10 -11 -9 3 -17 2 -17 -4 0 -6 -4 -7 -10 -4 -5 3 -10 1 -10 -4 0 -6 -5 -11
-11 -11 -5 0 -7 6 -3 13 3 6 -4 1 -17 -13 -13 -14 -20 -20 -15 -13 6 10 4 12
-8 7 -9 -3 -16 -10 -16 -16 0 -5 -4 -6 -10 -3 -5 3 -10 1 -10 -5 0 -6 -4 -8
-10 -5 -5 3 -10 -1 -10 -9 0 -19 -11 -20 -29 -3 -11 10 -13 10 -7 0 5 -8 1
-13 -9 -13 -9 0 -14 -4 -10 -9 3 -5 0 -13 -6 -17 -7 -4 -9 -3 -6 3 4 6 0 14
-9 17 -8 3 -12 2 -9 -4 11 -18 -6 -32 -23 -18 -13 11 -15 10 -9 -4 4 -13 2
-15 -10 -11 -10 4 -14 2 -9 -5 3 -6 1 -14 -5 -18 -7 -4 -9 -3 -5 4 3 6 2 13
-4 17 -5 3 -10 -1 -10 -10 0 -12 -5 -15 -16 -11 -12 5 -15 2 -10 -10 5 -14 4
-15 -9 -4 -14 11 -19 7 -16 -12 0 -4 -8 -5 -19 -3 -13 3 -20 -2 -21 -13 0 -10
-3 -12 -6 -4 -2 6 -9 12 -14 12 -6 0 -7 -4 -4 -10 6 -9 -16 -14 -53 -13 -10 1
-10 -2 0 -15 11 -13 10 -15 -4 -9 -10 3 -20 2 -23 -4 -4 -5 -11 -7 -16 -4 -5
4 -9 -1 -9 -9 0 -10 -6 -13 -15 -10 -8 4 -15 1 -15 -5 0 -6 -7 -8 -17 -4 -11
4 -14 3 -9 -6 9 -13 -15 -11 -25 3 -4 5 -10 -1 -13 -12 -5 -14 -12 -19 -23
-15 -10 4 -14 2 -10 -4 4 -6 -3 -9 -18 -7 -14 1 -23 -2 -19 -7 3 -5 -2 -9 -10
-9 -9 0 -16 -6 -16 -12 0 -9 -4 -8 -10 2 -9 14 -14 7 -11 -13 1 -4 -8 -3 -18
3 -17 9 -19 7 -16 -12 4 -22 4 -22 -10 -4 -14 19 -15 19 -15 2 0 -15 -3 -16
-15 -6 -13 11 -14 10 -9 -3 4 -12 0 -15 -19 -13 -16 2 -24 -2 -23 -12 0 -8 -6
-17 -14 -19 -13 -4 -13 -3 0 6 12 9 12 11 1 11 -8 0 -20 -8 -28 -17 -8 -11
-11 -12 -7 -3 7 13 5 13 -8 2 -13 -10 -17 -10 -21 0 -4 9 -6 8 -6 -3 -1 -9 -8
-20 -17 -23 -10 -4 -13 -2 -9 7 4 6 -2 1 -13 -13 -16 -19 -18 -28 -9 -39 10
-12 9 -13 -3 -7 -8 4 -6 0 4 -8 11 -9 16 -16 11 -16 -4 0 2 -8 13 -19 12 -10
22 -23 22 -30 0 -6 4 -11 8 -11 7 0 11 -15 14 -57 1 -7 5 -10 10 -7 9 6 10 5
13 -64 3 -61 8 -70 32 -51 13 11 15 11 9 1 -12 -20 55 -12 72 8 10 13 11 12 6
-5 -5 -17 -3 -17 14 4 11 13 24 21 31 17 6 -4 11 -2 11 3 0 6 6 10 13 8 6 -1
11 4 9 12 -3 12 -1 12 14 0 15 -12 17 -12 9 0 -6 11 -4 13 10 7 15 -5 16 -4 6
8 -10 12 -8 13 10 9 17 -5 20 -3 14 8 -5 8 -5 11 0 7 4 -4 15 -2 23 5 13 10
15 9 8 -3 -5 -11 -4 -10 6 1 7 9 22 19 33 21 11 2 19 10 17 17 -1 7 2 10 7 6
6 -3 18 -2 28 4 10 5 31 14 47 20 16 7 26 14 23 18 -4 3 -15 0 -24 -8 -16 -13
-17 -12 -4 3 9 12 21 16 37 12 15 -4 24 -2 24 6 0 6 5 8 12 4 8 -5 9 -2 5 10
-5 12 -3 16 5 13 7 -2 12 -10 11 -16 -4 -16 2 -14 18 6 12 14 12 16 0 8 -10
-5 -12 -4 -7 3 4 7 16 12 27 12 13 0 18 4 13 12 -5 8 -2 9 10 5 14 -5 17 -3
12 8 -7 20 -1 19 20 -2 17 -17 18 -17 11 0 -4 10 -2 17 5 17 6 0 17 8 25 18 8
9 12 11 8 5 -3 -7 -1 -13 4 -13 6 0 11 5 11 11 0 5 5 7 12 3 8 -5 9 -2 5 9 -3
9 -1 19 5 23 7 4 8 3 4 -4 -8 -13 6 -16 18 -5 7 8 11 9 37 12 5 0 8 5 5 10 -4
5 5 8 18 7 19 -2 23 1 18 13 -5 14 -4 14 11 2 15 -12 17 -12 12 2 -4 8 -1 18
6 23 8 5 10 3 4 -6 -6 -10 -4 -11 6 -4 8 4 20 9 28 11 8 1 17 7 21 13 4 6 15
12 24 14 10 1 22 9 27 17 5 8 9 10 9 4 0 -5 8 1 16 15 8 14 13 17 10 8 -3 -10
-1 -18 4 -18 6 0 10 8 10 18 0 14 2 15 10 2 8 -13 10 -13 10 2 0 11 5 15 14
12 8 -3 23 3 34 14 11 11 23 18 26 14 3 -3 6 1 6 8 0 7 3 11 6 7 3 -3 16 3 27
14 12 11 27 17 33 15 7 -3 15 2 18 11 4 10 15 14 31 11 20 -4 23 -2 15 13 -10
18 3 21 26 6 7 -4 11 0 10 10 0 9 6 18 14 20 13 4 13 3 0 -7 -13 -10 -13 -11
0 -7 8 2 14 13 13 23 -1 18 -1 18 13 0 13 -19 14 -19 14 -1 0 10 3 16 6 12 8
-8 33 16 27 26 -2 4 1 7 6 7 6 0 11 -4 11 -10 0 -5 5 -10 11 -10 5 0 8 4 5 9
-7 11 22 23 35 15 5 -3 9 -2 8 3 -3 19 2 33 12 33 5 0 7 -6 4 -12 -4 -7 2 -3
13 10 14 15 22 18 25 10 4 -9 6 -8 6 3 1 11 10 15 30 14 17 -1 30 1 29 4 -3
34 33 48 51 19 6 -10 10 -22 7 -26 -10 -17 12 -32 55 -38 41 -6 46 -4 57 20
16 35 69 66 113 66 123 0 374 -252 430 -432 50 -158 20 -261 -87 -305 -38 -16
-42 -21 -37 -43 9 -37 23 -61 32 -55 11 6 70 -19 97 -42 22 -20 105 -145 177
-269 124 -214 294 -396 447 -482 132 -74 310 -111 425 -88 11 2 40 7 65 10 25
4 106 23 180 43 223 58 400 158 488 273 19 25 43 46 53 46 11 1 25 2 33 3 21
2 67 52 82 92 8 19 34 52 58 72 55 46 129 156 181 269 38 83 41 88 65 81 14
-4 42 -7 64 -7 31 0 44 7 68 33 26 29 29 40 25 73 -3 22 -15 49 -26 59 -25 23
-69 41 -82 33 -6 -3 -7 8 -3 28 26 142 23 281 -10 389 -47 153 -188 336 -336
434 -60 39 -304 167 -410 213 -62 28 -132 92 -154 140 -17 38 -37 52 -76 52
-9 0 -22 -16 -29 -36 -8 -21 -29 -47 -54 -65 -38 -28 -47 -30 -116 -28 -122 4
-188 30 -361 144 -102 67 -134 93 -137 113 -3 11 3 14 23 11 3 0 11 7 18 17 8
11 18 14 26 9 9 -5 11 -4 6 3 -4 7 3 14 18 18 14 3 24 11 23 17 -1 6 3 12 8
12 23 3 65 25 65 35 0 5 11 12 25 16 14 3 23 10 20 14 -3 5 4 6 15 3 12 -3 20
0 20 6 0 7 -5 9 -12 5 -7 -4 -8 -3 -4 5 4 6 12 9 17 6 5 -4 9 -1 9 6 0 9 4 9
15 -1 12 -10 18 -6 33 20 13 21 22 27 25 18 4 -9 6 -7 6 4 1 10 4 17 9 17 21
-4 32 2 26 13 -5 8 -2 9 9 5 12 -4 17 -1 18 11 0 10 3 12 6 5 2 -7 9 -13 14
-13 4 0 6 7 2 15 -3 9 -2 15 3 14 5 -1 18 -1 29 0 17 1 18 3 5 11 -13 9 -13
10 0 11 8 1 19 1 24 0 5 -1 6 6 2 15 -6 15 -4 15 11 3 9 -8 14 -9 10 -3 -4 7
2 14 14 17 13 4 18 10 14 17 -5 9 -1 10 15 5 17 -5 21 -4 15 6 -6 9 -4 11 8 6
12 -4 14 -2 10 10 -4 11 -2 14 5 9 7 -4 12 -3 12 3 0 6 10 15 21 22 17 9 20 8
13 -3 -6 -10 -4 -10 9 1 10 8 15 16 13 19 -8 7 40 42 58 42 9 0 19 7 22 15 4
8 12 15 20 15 8 0 14 4 14 9 0 6 9 8 21 6 17 -4 19 -2 8 11 -10 12 -9 13 4 8
10 -3 20 2 27 15 6 12 20 21 30 21 11 0 20 7 20 16 0 8 4 13 9 10 5 -3 18 9
30 27 11 17 21 27 21 21 0 -5 -6 -16 -12 -24 -7 -8 -3 -6 9 4 13 10 20 22 17
27 -2 4 4 6 15 4 14 -2 18 1 15 10 -4 10 0 13 15 10 15 -3 18 0 14 12 -4 11
-2 14 5 9 7 -4 12 -2 12 4 0 6 8 14 17 17 10 4 30 20 46 36 23 24 31 27 38 16
5 -8 9 -9 9 -3 0 5 -5 15 -11 21 -7 7 -3 10 16 8 22 -3 24 -1 14 11 -7 8 -8
14 -3 13 18 -3 34 1 33 9 -3 19 2 23 16 12 13 -11 14 -10 9 4 -3 9 -1 16 6 16
6 0 8 5 4 12 -5 7 -3 8 6 3 7 -4 16 -2 21 6 4 8 13 15 19 15 21 3 22 4 10 19
-10 12 -8 14 9 10 12 -2 19 0 16 5 -3 5 0 12 6 16 6 3 15 0 20 -7 5 -8 9 -9 9
-3 0 5 -6 16 -12 23 -7 7 -8 12 -3 11 23 -5 24 1 3 22 -13 13 -26 22 -30 21
-5 -2 -8 2 -8 8 0 5 -4 7 -10 4 -5 -3 -10 -1 -10 4 0 6 -3 10 -7 9 -14 -4 -53
26 -53 40 0 7 -4 11 -8 8 -5 -3 -15 6 -22 19 -7 14 -20 25 -27 25 -8 0 -11 5
-8 10 3 6 1 10 -5 10 -6 0 -8 5 -5 10 3 6 -2 10 -11 10 -10 0 -15 3 -11 6 12
12 -17 33 -30 22 -9 -7 -13 -7 -13 0 0 6 -7 9 -15 6 -8 -4 -15 -10 -15 -16 0
-5 5 -6 12 -2 7 4 8 3 4 -4 -4 -7 -14 -12 -22 -12 -8 0 -17 -7 -20 -15 -4 -8
-11 -12 -18 -8 -6 4 -5 -1 3 -10 12 -15 12 -17 -1 -12 -10 4 -17 -1 -21 -15
-3 -12 -10 -19 -16 -16 -5 4 -12 -3 -16 -14 -3 -11 -10 -20 -15 -20 -5 0 -7 8
-4 18 5 16 5 16 -6 -1 -6 -9 -8 -23 -4 -30 5 -8 2 -7 -9 2 -9 7 -17 12 -18 10
0 -2 -2 -12 -4 -22 -4 -23 -15 -35 -15 -18 0 7 -5 9 -10 6 -6 -4 -7 -11 -4
-17 5 -8 1 -9 -10 -5 -10 4 -15 3 -11 -3 3 -6 -2 -10 -12 -10 -15 0 -16 -2 -3
-11 12 -9 11 -10 -6 -6 -16 3 -21 0 -20 -16 1 -11 -6 -22 -14 -24 -12 -4 -12
-3 -1 5 7 5 9 12 5 14 -9 5 -42 -24 -46 -39 -1 -5 -8 -7 -15 -5 -7 2 -13 -4
-13 -13 0 -8 -7 -15 -15 -15 -9 0 -15 -9 -16 -22 0 -22 -1 -22 -9 -3 -7 19 -8
19 -15 2 -5 -11 -14 -16 -23 -12 -13 5 -13 3 -1 -12 9 -11 10 -14 2 -9 -8 4
-13 2 -13 -6 0 -10 -3 -9 -11 2 -9 12 -10 10 -6 -8 5 -20 3 -22 -11 -10 -9 7
-13 9 -10 3 3 -5 0 -15 -7 -22 -11 -10 -15 -10 -18 0 -4 7 -6 6 -6 -4 -1 -8
-11 -25 -24 -37 -18 -17 -26 -19 -35 -10 -9 9 -11 7 -7 -10 3 -16 0 -19 -12
-15 -12 5 -14 3 -8 -7 5 -8 4 -11 -3 -6 -6 3 -23 -6 -38 -21 -14 -16 -23 -22
-20 -15 4 6 2 12 -3 12 -10 0 -16 -22 -12 -43 1 -5 -3 -6 -9 -2 -6 3 -7 11 -4
17 4 7 2 8 -4 4 -7 -4 -12 -15 -12 -24 0 -13 -2 -14 -9 -4 -6 10 -10 9 -14 -7
-4 -15 -10 -19 -23 -14 -12 4 -15 3 -10 -5 4 -7 1 -12 -8 -12 -10 0 -13 -6 -9
-17 6 -16 5 -17 -12 -3 -15 12 -17 12 -10 1 6 -11 4 -13 -9 -8 -11 5 -15 3
-10 -5 5 -8 2 -9 -9 -5 -12 4 -17 1 -17 -9 0 -9 -9 -18 -20 -21 -11 -3 -20
-10 -20 -15 0 -6 -7 -7 -16 -4 -8 3 -13 2 -10 -2 3 -5 -2 -19 -10 -31 -13 -19
-18 -20 -32 -9 -11 9 -13 9 -9 1 8 -12 -30 -40 -46 -35 -5 1 -6 -2 -2 -8 6 -9
-8 -15 -29 -11 -5 1 -3 -5 4 -14 11 -13 10 -15 -2 -10 -9 4 -18 0 -21 -9 -3
-8 -14 -13 -24 -11 -153 36 -185 61 -296 230 -59 90 -168 211 -252 278 -34 28
-126 76 -170 89 -217 65 -435 24 -650 -120 -43 -29 -83 -55 -86 -58 -4 -2 -19
6 -32 18 -14 13 -49 43 -77 67 -29 25 -58 50 -64 56 -6 6 -135 119 -286 250
-151 132 -282 247 -291 255 -8 8 -79 70 -157 138 -78 68 -142 126 -142 129 0
14 124 121 136 116 7 -2 15 6 20 19 4 12 28 42 53 65 39 36 44 45 35 60 -17
28 -43 27 -65 -1 -20 -25 -72 -56 -94 -56 -7 0 -15 -6 -18 -13 -3 -7 -36 -41
-75 -75 l-69 -62 -39 34 -39 34 45 40 c25 23 51 41 58 42 6 0 12 7 12 16 0 12
6 15 23 9 84 -26 115 -7 124 79 5 51 4 57 -25 85 -26 26 -38 31 -79 31 -35 0
-56 -6 -77 -23 -26 -21 -27 -25 -18 -60 9 -31 8 -39 -4 -44 -8 -3 -14 -10 -14
-15 0 -15 -93 -97 -111 -98 -19 0 -42 24 -46 48 -2 17 -31 45 -56 56 -9 3 -7
9 6 19 25 21 21 52 -12 89 -26 29 -30 31 -57 19 -25 -10 -35 -9 -62 5 -27 13
-35 14 -48 3 -13 -11 -18 -10 -25 4 -14 24 -39 21 -87 -10z m4246 -1050 c8 -7
18 -10 24 -7 6 4 9 3 6 -2 -3 -5 5 -19 18 -32 13 -12 24 -19 24 -15 0 4 10 -3
21 -16 l21 -23 -31 -29 c-34 -30 -47 -37 -35 -17 4 7 3 8 -5 4 -9 -6 -9 -11
-1 -21 9 -11 7 -12 -11 -8 -18 5 -21 3 -16 -10 3 -9 2 -19 -3 -22 -6 -4 -10 0
-11 7 0 10 -2 10 -6 0 -2 -6 -9 -10 -14 -7 -5 4 -6 -2 -2 -11 4 -11 2 -15 -4
-11 -11 7 -56 -27 -47 -35 3 -3 -2 -8 -10 -11 -10 -4 -13 -1 -9 9 3 7 0 14 -6
14 -6 0 -10 -3 -10 -7 4 -22 -2 -33 -13 -27 -8 5 -9 2 -5 -10 6 -14 4 -15 -16
-5 -20 11 -21 11 -8 -5 8 -9 10 -16 5 -15 -21 4 -35 -2 -29 -11 3 -5 -1 -11
-9 -11 -30 -3 -34 -4 -43 -13 -5 -6 -2 -6 7 -1 8 4 6 -1 -5 -12 -11 -11 -23
-16 -26 -11 -3 5 -9 3 -12 -6 -4 -9 -13 -16 -20 -16 -8 0 -21 -8 -28 -17 -12
-15 -12 -16 1 -8 13 8 13 6 2 -7 -8 -9 -20 -14 -28 -11 -9 3 -14 -1 -14 -13 0
-15 -2 -16 -9 -5 -7 11 -10 9 -16 -9 -4 -12 -10 -19 -14 -14 -3 5 -12 10 -20
12 -12 3 -12 0 -1 -12 13 -17 5 -21 -29 -17 -7 2 -10 -2 -7 -7 3 -5 -2 -16
-11 -23 -12 -10 -14 -10 -9 -1 4 6 2 12 -3 12 -11 0 -15 -15 -12 -34 1 -5 -5
-4 -13 4 -14 10 -16 10 -16 -5 0 -11 -5 -15 -15 -11 -14 5 -20 -5 -16 -27 1
-5 -3 -6 -9 -2 -6 3 -7 12 -4 18 3 7 -7 -2 -22 -19 -16 -18 -37 -30 -47 -29
-9 2 -15 -1 -11 -6 3 -5 0 -9 -6 -9 -6 0 -9 -4 -6 -9 4 -5 -2 -7 -13 -4 -12 3
-20 -2 -24 -16 -3 -12 -11 -21 -17 -21 -9 0 -9 5 1 18 13 16 13 16 -7 -1 -11
-9 -25 -14 -29 -10 -5 5 -3 0 5 -10 7 -10 9 -17 4 -16 -23 4 -45 -2 -39 -11 3
-5 -2 -10 -13 -10 -10 0 -28 -9 -40 -20 -12 -11 -27 -19 -34 -18 -7 2 -12 -2
-13 -9 0 -6 -4 -15 -9 -20 -5 -5 -6 -3 -2 5 4 6 2 12 -3 12 -6 0 -11 -7 -11
-15 0 -9 -6 -12 -17 -8 -10 3 -15 3 -11 -2 14 -15 -13 -35 -33 -25 -15 9 -17
8 -12 -6 4 -11 3 -15 -5 -10 -6 3 -13 2 -17 -4 -3 -5 -1 -10 6 -10 7 0 9 -3 6
-6 -4 -4 -14 -1 -24 7 -14 12 -16 12 -8 0 6 -11 4 -13 -8 -8 -12 4 -14 2 -10
-10 4 -11 2 -14 -5 -9 -7 4 -12 3 -12 -3 0 -6 -7 -8 -16 -4 -10 4 -17 -2 -21
-17 -4 -16 -8 -18 -14 -8 -7 10 -9 9 -9 -4 0 -10 -5 -18 -11 -18 -5 0 -7 5 -4
10 11 17 -1 11 -21 -12 -19 -21 -19 -21 1 -14 16 6 17 5 8 -5 -10 -10 -15 -9
-28 1 -12 10 -15 10 -15 -1 0 -8 -9 -20 -20 -27 -22 -13 -23 -12 -33 33 -5 23
37 101 52 98 6 -2 10 3 8 10 -1 6 6 11 15 11 11 -1 15 4 10 15 -5 14 -3 14 11
3 14 -12 16 -11 12 7 -2 12 0 19 5 16 5 -3 17 3 27 13 10 11 26 18 36 16 15
-2 16 0 5 14 -9 11 -9 14 -1 9 14 -9 55 27 45 39 -4 5 0 3 8 -3 11 -8 18 -8
27 2 6 7 9 16 5 20 -4 4 -2 6 3 5 6 -1 20 1 33 5 16 5 20 11 13 19 -8 9 -2 12
20 10 24 -2 28 1 19 12 -10 11 -7 12 10 9 13 -2 20 -2 16 2 -11 11 25 42 42
36 10 -4 13 -2 8 5 -4 7 -1 12 8 12 8 0 18 5 22 12 5 7 2 8 -7 3 -8 -5 -11 -4
-6 1 5 5 12 9 15 10 20 2 49 20 67 41 15 16 24 20 33 13 6 -6 10 -7 7 -4 -7
10 15 45 25 39 5 -3 14 4 20 15 6 11 17 20 25 20 8 0 15 5 15 10 0 6 3 9 8 9
18 -3 24 2 13 14 -8 10 -7 14 4 14 8 0 15 -4 15 -9 0 -4 4 -8 9 -8 6 0 8 9 6
20 -2 11 0 18 6 15 5 -4 9 -1 9 5 0 6 5 8 10 5 6 -3 10 -1 10 4 0 6 6 10 13 9
6 -2 11 5 11 14 -1 11 5 15 17 13 13 -3 16 1 12 12 -4 11 -2 14 5 9 13 -8 52
14 52 28 0 6 -5 5 -12 -2 -7 -7 -16 -12 -22 -12 -5 0 -1 6 9 14 11 8 24 12 29
8 5 -3 6 2 2 13 -5 15 -4 16 9 5 11 -9 15 -9 15 -1 0 6 12 16 26 22 15 5 24
12 20 16 -7 7 35 39 48 35 5 -2 6 4 3 12 -4 9 0 13 11 12 9 -2 21 7 27 18 6
12 21 22 34 24 16 3 21 8 17 19 -6 14 -4 14 11 2 10 -7 15 -9 11 -5 -4 5 0 15
10 23 9 8 11 12 5 8 -7 -3 -13 -4 -13 -1 0 3 15 13 33 21 17 8 23 13 13 10
-15 -4 -17 -3 -7 8 14 18 71 17 89 0z m-2595 -1687 c-3 -6 0 -6 7 1 10 9 22 6
56 -18 44 -30 52 -43 34 -54 -5 -3 -10 -1 -10 6 0 7 -9 2 -19 -10 -14 -16 -21
-18 -24 -9 -4 9 -6 8 -6 -3 -1 -18 -27 -34 -49 -30 -7 1 -15 -5 -18 -13 -3 -9
-10 -13 -15 -10 -5 3 -9 0 -9 -6 0 -6 -4 -8 -10 -5 -5 3 -10 1 -10 -5 0 -6 -4
-9 -9 -6 -5 3 -12 -1 -15 -10 -3 -8 -10 -12 -16 -9 -5 3 -10 0 -11 -7 0 -7 -4
-4 -9 7 l-9 20 -1 -20 c-2 -11 -2 -23 -2 -26 1 -4 -8 -5 -18 -2 -12 3 -20 0
-20 -6 0 -7 6 -9 13 -5 6 4 8 3 4 -1 -12 -14 -38 -15 -31 -2 3 7 -4 1 -16 -13
-12 -14 -18 -18 -14 -10 6 12 5 13 -8 3 -8 -7 -19 -9 -23 -5 -5 4 -5 1 -1 -5
13 -23 -6 -38 -21 -18 -9 14 -13 15 -13 4 0 -8 -8 -23 -16 -34 -16 -19 -16
-19 -10 5 6 21 5 22 -4 7 -6 -9 -15 -15 -21 -12 -5 4 -9 -1 -9 -10 0 -9 -4
-13 -10 -10 -5 3 -10 1 -10 -5 0 -6 -4 -8 -10 -5 -5 3 -10 1 -10 -5 0 -6 -5
-8 -12 -4 -8 5 -9 2 -5 -10 6 -14 3 -15 -13 -6 -16 8 -20 8 -18 -2 2 -7 -5
-13 -14 -13 -9 0 -20 -4 -25 -9 -4 -5 -3 -6 5 -2 6 4 12 5 12 2 0 -10 -60 -37
-69 -31 -5 2 -11 -2 -15 -10 -3 -8 -15 -15 -26 -15 -18 0 -25 -11 -21 -34 1
-5 -5 -4 -13 3 -12 10 -17 9 -25 -7 -7 -14 -20 -19 -40 -18 -20 1 -27 -2 -24
-11 3 -7 -2 -13 -12 -13 -9 0 -14 -4 -11 -9 4 -5 -4 -7 -16 -3 -16 4 -19 2
-13 -8 6 -10 4 -12 -8 -7 -12 4 -17 1 -17 -10 0 -13 -2 -14 -17 -2 -9 8 -14 9
-11 4 4 -6 3 -17 -3 -25 -7 -13 -9 -13 -9 -1 0 10 -5 8 -17 -6 -10 -11 -24
-18 -32 -15 -10 3 -11 0 -5 -9 6 -11 3 -10 -11 1 -10 8 -16 10 -12 4 3 -6 -9
-16 -29 -23 -20 -7 -33 -15 -31 -18 3 -2 14 0 26 6 11 6 22 7 25 3 3 -5 0 -9
-7 -10 -37 -3 -92 -23 -106 -38 -15 -17 -15 -17 4 -3 19 13 19 13 6 -4 -11
-14 -16 -15 -29 -5 -13 11 -15 10 -9 -6 7 -17 6 -17 -10 -5 -11 9 -14 10 -9 2
4 -8 1 -13 -9 -13 -10 0 -13 -5 -9 -12 5 -9 2 -8 -9 1 -15 12 -17 12 -11 -3 5
-12 2 -15 -10 -10 -11 4 -16 1 -16 -11 0 -15 -2 -16 -17 -4 -14 12 -16 12 -11
-1 4 -11 -1 -16 -19 -18 -31 -2 -45 -11 -38 -23 3 -5 -1 -6 -9 -3 -9 3 -16 1
-16 -6 0 -6 -5 -8 -12 -4 -8 5 -9 2 -4 -11 6 -16 4 -16 -11 -4 -15 12 -16 12
-10 -5 6 -15 5 -17 -7 -7 -11 9 -15 8 -21 -6 -6 -16 -8 -15 -20 7 -7 14 -11
28 -9 32 3 5 -3 8 -12 8 -10 0 -15 3 -12 6 8 7 -21 77 -36 86 -8 6 -8 8 1 8 6
0 10 11 8 25 -1 14 2 25 7 25 5 0 6 6 2 13 -5 7 -1 7 12 -3 10 -8 16 -11 12
-6 -10 12 23 45 43 41 9 -2 20 3 23 12 5 13 9 13 23 2 14 -12 16 -12 8 0 -6
11 -3 13 14 8 15 -4 21 -2 18 7 -3 8 6 11 29 11 25 -1 34 3 34 14 0 13 2 13 9
2 6 -9 11 -10 15 -2 4 6 13 8 19 4 7 -4 5 2 -3 12 -14 17 -14 18 4 8 21 -12
59 -5 50 9 -3 5 -13 4 -22 -4 -15 -12 -16 -11 -3 4 10 14 18 15 32 7 15 -8 19
-6 19 7 0 14 2 15 17 3 14 -12 16 -12 8 0 -6 11 -4 13 9 8 10 -4 15 -3 11 3
-3 6 3 10 15 10 12 0 19 4 15 9 -3 6 3 8 15 6 11 -2 22 0 25 6 4 5 1 9 -6 9
-7 0 -9 3 -6 6 4 4 13 1 22 -6 12 -10 15 -10 15 3 0 11 5 14 17 10 11 -4 14
-3 9 6 -5 8 0 10 19 7 20 -4 24 -2 16 8 -8 9 -3 12 19 10 21 -1 27 2 23 12 -3
9 1 14 12 14 10 0 13 -5 9 -12 -4 -7 -3 -8 4 -4 7 4 12 15 12 24 0 15 2 15 10
2 9 -13 14 -7 11 12 0 4 7 4 16 1 11 -4 14 -3 9 6 -9 14 16 11 26 -4 4 -5 8 1
8 15 0 20 2 22 10 10 9 -13 14 -8 12 11 -1 4 8 5 18 2 11 -3 20 0 20 6 0 6 7
11 15 11 8 0 25 10 37 22 12 12 19 15 16 6 -4 -8 -1 -15 7 -15 7 0 11 6 8 14
-5 12 15 18 41 14 5 -1 5 6 2 16 -6 14 -5 16 5 6 17 -17 30 -16 23 1 -4 10 0
14 13 12 10 -2 24 4 31 13 8 9 10 10 7 3 -6 -11 -3 -12 14 -3 11 7 21 17 21
23 0 7 5 6 15 -2 13 -11 14 -10 10 3 -5 10 -1 15 12 14 11 -1 17 4 15 12 -3
12 0 12 12 2 11 -9 16 -9 22 0 5 8 3 9 -6 4 -9 -5 -11 -4 -6 3 5 9 13 9 29 0
19 -10 21 -9 9 4 -10 13 -10 18 -1 24 8 4 9 3 5 -4 -4 -7 -2 -12 3 -12 6 0 11
5 11 11 0 5 5 7 12 3 8 -5 9 -2 4 11 -5 15 -4 16 9 5 12 -10 15 -9 15 5 0 15
2 16 18 4 9 -7 14 -9 10 -5 -4 5 2 17 14 28 17 14 23 16 30 6 6 -10 8 -9 8 3
0 9 7 19 15 23 8 3 15 1 15 -5 0 -6 5 -7 10 -4 6 4 7 11 4 17 -5 7 -1 9 9 5
10 -3 17 -3 17 2 0 5 9 11 21 14 12 3 19 10 15 15 -3 5 1 9 9 9 8 0 11 -5 8
-11z m-399 -94 c3 -5 -1 -9 -9 -9 -8 0 -12 4 -9 9 3 4 7 8 9 8 2 0 6 -4 9 -8z
m46 -311 c0 -5 -7 -12 -16 -15 -14 -5 -15 -4 -4 9 14 17 20 19 20 6z"/>
<path d="M4186 3692 c-3 -5 1 -9 9 -9 8 0 12 4 9 9 -3 4 -7 8 -9 8 -2 0 -6 -4
-9 -8z"/>
<path d="M4030 3386 c0 -2 8 -10 18 -17 15 -13 16 -12 3 4 -13 16 -21 21 -21
13z"/>
<path d="M3555 3200 c-3 -5 -1 -10 4 -10 6 0 11 5 11 10 0 6 -2 10 -4 10 -3 0
-8 -4 -11 -10z"/>
<path d="M3310 3020 c0 -5 5 -10 11 -10 5 0 7 5 4 10 -3 6 -8 10 -11 10 -2 0
-4 -4 -4 -10z"/>
<path d="M3176 2823 c-6 -14 -5 -15 5 -6 7 7 10 15 7 18 -3 3 -9 -2 -12 -12z"/>
<path d="M1775 2011 c-3 -5 -2 -12 3 -15 5 -3 9 1 9 9 0 17 -3 19 -12 6z"/>
<path d="M3771 3487 c-13 -21 -12 -21 5 -5 10 10 16 20 13 22 -3 3 -11 -5 -18
-17z"/>
<path d="M3385 3209 c-4 -6 -5 -12 -2 -15 2 -3 7 2 10 11 7 17 1 20 -8 4z"/>
<path d="M3939 3183 c-13 -15 -12 -15 9 -4 23 12 28 21 13 21 -5 0 -15 -7 -22
-17z"/>
</g>
</svg>
