<svg version="1.2" baseProfile="tiny-ps" xmlns="http://www.w3.org/2000/svg" viewBox="0 0 190 502" width="190" height="502">
	<title>violin-svg</title>
	<style>
		tspan { white-space:pre }
		.shp0 { fill: #ffffff } 
		.shp1 { fill: #000000;stroke: #000000;stroke-width: 0.036 } 
		.shp2 { fill: #a16121;stroke: #000000;stroke-width: 0.036 } 
		.shp3 { fill: #ffffff;stroke: #000000;stroke-width: 0.036 } 
	</style>
	<g id="Layer_1">
		<g id="Layer">
			<path id="Layer" fill-rule="evenodd" class="shp0" d="M144.7 488.23C144.7 483.46 148.59 479.59 153.38 479.59C158.16 479.59 162.05 483.46 162.05 488.23C162.05 493 158.16 496.87 153.38 496.87C148.59 496.87 144.7 493 144.7 488.23" />
			<path id="Layer" fill-rule="evenodd" class="shp1" d="M8.91 354.64L5.74 360.51C8.12 362.56 9.45 365.26 9.88 368.75C10.24 372.21 9.56 373.9 8.12 381.32C6.46 388.95 2.32 402.95 1.13 413.75C-0.09 424.7 -0.77 435.68 1.6 445.72C3.91 455.73 8.05 465.41 15.43 473.22C22.88 481.22 36.56 488.09 45.77 492.59C54.74 497.09 62.37 498.93 69.64 499.9C76.95 500.94 83.29 500.48 89.19 498.64C90.92 500.87 93.01 501.99 95.85 501.99C98.62 502.06 101.86 500.94 105.71 498.78C112.41 499.76 120.29 498.53 130.05 494.97C139.81 491.37 154.17 485.28 163.42 477.83C172.46 470.56 180.06 461.49 184.41 451.44C188.62 441.47 189.85 428.87 189.34 418.22C188.73 407.63 184.05 396.51 181.53 388.16C179.01 379.95 175.34 374.4 174.54 368.61C173.68 362.85 174.37 357.92 176.6 353.67L173.28 348.41C171.38 350.36 169.15 351.37 166.44 351.44C163.6 351.65 160.33 351.51 157.05 348.92C153.7 346.32 149.81 342.22 147.04 336.03C144.2 329.87 141.89 318.96 140.7 312.34C139.48 305.86 139.59 301.25 140.2 297.4C140.63 293.73 141.06 291.64 144.02 289.77C146.97 287.93 151.68 286.67 158.16 286.13L161.51 279.58C159.46 277.35 158.02 274.72 157.05 271.7C156 268.82 155.39 266.76 155.79 261.51C156.29 256.29 158.96 248.05 159.6 240.23C160 232.46 160.32 222.74 158.63 215.25C156.72 207.83 154.06 201.93 149.13 196.03C144.09 190.3 137.64 184.58 129.4 180.94C121.23 177.41 111.61 175.22 100.42 174.5L92 58.76C91.38 54.8 90.81 50.66 90.41 46.19C89.91 41.76 89.58 37.05 89.3 32.05C90.2 31.83 90.77 31.04 90.88 29.53C90.99 28.09 90.63 26.07 89.94 23.33C92.5 23.91 94.12 23.48 95.2 22.04C96.14 20.6 96.68 16.6 95.99 14.91C95.24 13.32 93.58 12.57 90.88 12.5C90.88 10.09 90.41 8.39 89.62 7.42C88.68 6.49 87.64 6.38 85.95 6.95C87.14 4.58 86.92 2.89 85.16 1.88C83.36 0.87 77.34 0.08 75.47 0.9C73.53 1.84 72.99 3.97 73.71 7.42C71.76 7.39 70.58 7.82 69.75 8.86C68.92 9.94 68.7 11.53 68.96 13.61C66.47 13.36 64.85 13.79 63.7 14.91C62.51 16.13 62.04 18.76 62.3 20.31C62.51 21.93 63.92 23.62 65.14 24.27C66.22 24.95 67.73 25.06 69.28 24.45C68.7 26.43 68.6 28.01 69.1 29.34C69.5 30.71 70.5 31.83 71.98 32.55C71.48 32.08 71.15 34.89 71.01 40.97C70.83 47.16 70.83 56.34 71.01 69.09L71.55 176.26C66.76 175.83 61.32 176.69 54.84 179.14C48.26 181.59 39.18 185.48 33.06 190.8C26.94 196.28 21.72 203.91 18.77 211.18C15.75 218.38 14.96 225.9 15.28 234.04C15.53 242.46 19.02 253.8 20.36 260.43C21.58 266.87 22.84 269.07 22.59 272.85C22.12 276.81 20.68 280.51 17.98 283.97L21.94 290.16C25.58 288.33 28.71 287.93 31.62 289.12C34.43 290.38 37.35 292.39 38.97 297.25C40.52 302.22 41.2 310.83 40.88 318.06C40.41 325.41 38.97 334.37 36.27 340.63C33.39 347.01 28.71 353.05 24.17 355.43C19.54 357.8 14.5 357.58 8.88 354.67L8.91 354.64Z" />
			<path id="Layer" fill-rule="evenodd" class="shp2" d="M71.55 179.93C68.31 179.68 64.39 180.25 59.63 181.51C54.74 182.88 48.94 183.78 43.07 187.71C37.06 191.74 28.93 198.54 24.64 205.2C20.47 212.01 18.56 220.83 17.8 227.77C16.97 234.87 18.45 240.77 19.71 247C20.86 253.41 23.85 259.92 24.64 265.14C25.22 270.36 24.64 274.65 24.03 277.85C23.38 281.13 22.52 283.25 21.15 284.37L22.27 286.74C25.18 285.59 27.7 285.27 30.22 285.63C32.6 286.02 34.87 286.6 36.88 289.3C38.93 292.25 41.49 296.43 42.46 302.8C43.29 309.35 43.36 319.61 42.14 327.6C40.81 335.63 38.03 344.77 34.65 350.17C31.16 355.54 25.61 358.49 21.62 359.71C17.59 361.08 13.99 360.4 10.67 357.95L9.23 359.86C11.5 360 12.62 362.63 12.58 368.14C12.44 373.72 10.24 384.7 8.77 392.62C7.22 400.47 4.41 407.52 3.65 415.33C2.79 423.39 2.07 431.56 3.83 440.13C5.53 448.77 8.91 457.52 13.99 466.67C18.7 460.58 24.86 455.65 32.45 451.73C40.05 447.91 49.19 443.12 59.31 443.48C69.39 443.88 80.08 447.48 92.21 454.14C88.83 448.45 85.88 441.93 82.82 433.76C79.69 425.77 75.4 412.49 74.25 406.11C73.06 399.96 74.07 397.87 76.3 395.96C78.5 394.16 82.67 394.85 87.28 394.52C91.78 394.16 98.55 393.95 103.16 393.87C107.55 393.95 112.27 392.83 113.99 394.85C115.65 397.01 114.61 400.14 113.49 406.58C112.27 413.24 108.67 424.11 107.15 433.76C105.53 443.48 104.31 455.36 104.45 463.97C104.64 472.57 107.51 479.52 108.09 484.81C108.45 490.1 108.27 493.81 107.15 495.79C109.85 497.27 114.68 496.8 121.77 494.67C128.83 492.55 141.07 487.98 149.6 482.9C158.06 477.9 166.34 472.5 172.49 464.61C178.54 456.73 183.69 445.39 185.85 435.85C187.79 426.45 186.32 417.24 184.73 408.2C183.04 399.2 178.43 388.47 176.31 382.28C174.11 376.27 172.67 375.84 171.84 372.09C170.98 368.42 171.02 363.35 171.38 360.32C171.63 357.48 172.42 355.68 173.61 354.92L171.99 352.4C170.73 354.45 168.82 355.46 166.12 355.43C163.24 355.53 159.6 355.5 155.79 352.4C151.9 349.45 147 344.88 143.87 337.14C140.7 329.29 137.97 313.99 137.18 305.96C136.28 298.08 135.7 293.72 138.94 289.83C142.22 286.05 147.87 283.93 156.44 283.32L158.49 280.8C155.43 278.39 153.66 275.07 152.91 270.47C152.19 265.89 153.41 260.13 154.2 253.62C154.93 247.25 156.8 239.04 157.05 232.31C157.19 225.75 157.34 220.21 155.14 213.87C152.76 207.5 149.13 200.01 143.41 194.32C137.47 188.75 127.75 183.63 120.65 180.79C113.63 178.02 107.37 177.3 101.57 178.09L111.76 291.6C108.95 290.59 105.5 290.09 101.25 289.69C96.86 289.4 91.57 289.22 86.49 289.69C81.49 290.27 76.45 291.27 71.37 292.86C71.41 255.25 71.48 217.59 71.55 179.94L71.55 179.93Z" />
			<path id="Layer" fill-rule="evenodd" class="shp1" d="M75.26 351.75C74.65 350.31 74.32 348.76 74.43 347.25C74.39 345.77 73.85 343.61 75.73 342.57C77.63 341.6 81.59 341.56 85.37 341.2C88.97 340.84 92.9 340.48 97.58 340.55C102.29 340.77 110.93 340.88 113.2 342.39C115.22 344.01 114.14 346.49 109.96 349.99L105.86 349.81C106.18 348.83 105.97 348.15 104.92 347.61C103.77 347.25 102.98 347.03 99.77 346.96C96.46 346.82 88.43 346.67 85.81 346.96C83.18 347.43 82.82 348.29 84.44 349.55C82.46 349.81 80.77 350.06 79.22 350.45C77.6 350.85 76.41 351.29 75.26 351.75L75.26 351.75Z" />
			<path id="Layer" fill-rule="evenodd" class="shp1" d="M139.73 375.37L142.21 372.17C140.74 369.93 140.38 368.21 141.13 366.59C141.78 365.07 144.88 362.84 146.53 362.95C148.15 363.2 150.75 365.47 151 367.52C151.14 369.61 149.63 373.43 147.43 375.23C145.09 377.17 140.74 379.87 137.42 378.61C133.86 377.35 129.65 372.96 127.31 367.52C124.97 362.09 124.54 352.8 123.93 346.32C123.35 339.91 123.89 333.83 123.6 329.43C123.17 325.22 122.45 322.63 121.44 320.83C120.43 319.07 119.07 318.27 117.48 318.6L115.83 320.83C116.19 323.03 116.01 324.54 115.14 325.37C114.17 326.3 111.61 327.02 110.68 326.12C109.63 325.19 108.7 322.38 109.52 320.33C110.32 318.42 112.98 315.39 115.72 314.85C118.45 314.42 122.99 315.18 125.58 317.66C127.96 320.29 129.61 325.01 130.55 330.01C131.31 335.12 130.69 341.67 131.05 347.72C131.34 353.91 131.7 361.47 133.1 366.12C134.53 370.79 136.69 373.74 139.71 375.36L139.73 375.37Z" />
			<path id="Layer" fill-rule="evenodd" class="shp1" d="M44.26 377.21L41.78 374.01C43.18 371.77 43.54 370.05 42.86 368.43C42.1 366.91 39.01 364.68 37.46 364.79C35.73 365.04 33.17 367.31 32.99 369.36C32.74 371.45 34.25 375.27 36.56 377.07C38.79 379.01 43.15 381.71 46.57 380.45C50.02 379.19 54.27 374.8 56.68 369.36C58.91 363.93 59.35 354.64 60.07 348.16C60.53 341.75 59.99 335.67 60.39 331.27C60.75 327.06 61.47 324.47 62.55 322.67C63.52 320.91 64.85 320.11 66.55 320.44L68.2 322.67C67.73 324.87 67.95 326.38 68.85 327.21C69.71 328.14 72.31 328.86 73.31 327.96C74.29 327.03 75.19 324.22 74.47 322.17C73.57 320.26 70.9 317.23 68.27 316.69C65.47 316.26 60.93 317.02 58.41 319.5C55.93 322.13 54.27 326.85 53.44 331.85C52.61 336.96 53.19 343.51 52.94 349.56C52.54 355.75 52.18 363.31 50.89 367.96C49.41 372.63 47.25 375.58 44.26 377.2L44.26 377.21Z" />
			<path id="Layer" fill-rule="evenodd" class="shp1" d="M80.73 403.34L76.05 343.62L74.07 62.14L76.3 62.36L77.78 343.63L82.21 403.35L80.73 403.35L80.73 403.34Z" />
			<path id="Layer" fill-rule="evenodd" class="shp3" d="M80.95 402.8L76.48 344.34L76.27 303.91L74.43 62.71L75.91 62.78L76.16 136.94L77.42 344.26L81.85 403.01L80.95 402.81L80.95 402.8Z" />
			<path id="Layer" fill-rule="evenodd" class="shp1" d="M110.79 403.77L111.87 343.8L89.66 62.06L87.97 62.2L110.14 343.94L109.64 403.7L110.79 403.78L110.79 403.77Z" />
			<path id="Layer" fill-rule="evenodd" class="shp3" d="M110.47 403.45L111.51 344.56L108.35 304.24L89.38 62.46L88.33 62.6L94.49 137.84L110.58 344.55L110 403.23L110.48 403.45L110.47 403.45Z" />
			<path id="Layer" fill-rule="evenodd" class="shp1" d="M99.49 402.8L100.57 342.83L85.37 63.15L83.72 63.22L98.84 342.98L98.33 402.74L99.48 402.8L99.49 402.8Z" />
			<path id="Layer" fill-rule="evenodd" class="shp3" d="M99.13 402.44L100.21 343.55L85.09 63.58L84.15 63.72L99.24 343.58L98.66 402.26L99.13 402.44L99.13 402.44Z" />
			<path id="Layer" fill-rule="evenodd" class="shp1" d="M90.41 402.33L89.73 342.57L80.59 63.07L79 63.04L88.04 342.72L89.3 402.37L90.41 402.33L90.41 402.33Z" />
			<path id="Layer" fill-rule="evenodd" class="shp3" d="M90.16 402.01L89.37 343.33L80.19 63.5L79.33 63.5L88.43 343.33L89.51 401.97L90.16 402.02L90.16 402.01Z" />
			<path id="Layer" fill-rule="evenodd" class="shp3" d="M79.36 399.13C79.4 399.71 79.4 400.43 79.51 401.29C79.61 402.23 79.69 403.31 79.87 404.53C79.47 405 79.33 405.5 79.43 405.9C79.51 406.37 79.9 406.8 80.33 407.05C80.69 407.34 81.09 407.91 81.67 407.66C82.13 407.55 82.67 407.09 83.29 406.26C83.25 406.73 82.93 407.27 82.6 407.59C82.1 408.06 81.56 408.63 80.98 408.63C80.33 408.74 79.61 408.02 79.22 407.59C78.71 407.16 78.64 406.69 78.61 406.04C78.53 405.54 78.89 404.82 79.29 404.17C79.29 402.51 79.33 400.82 79.36 399.13L79.36 399.13Z" />
			<path id="Layer" fill-rule="evenodd" class="shp3" d="M87.71 398.99C87.71 399.57 87.82 400.29 87.89 401.15C88 402.09 88.07 403.17 88.25 404.39C87.82 404.89 87.71 405.29 87.79 405.72C87.89 406.15 88.15 406.69 88.69 406.91C89.05 407.2 89.44 407.77 90.02 407.52C90.49 407.41 91.03 406.95 91.64 406.12C91.57 406.59 91.35 407.13 90.99 407.45C90.59 407.92 89.87 408.53 89.37 408.46C88.76 408.53 87.93 407.92 87.57 407.45C87.14 407.05 86.99 406.48 86.99 405.87C86.96 405.33 87.17 404.71 87.64 404.03C87.64 402.37 87.68 400.68 87.71 398.99L87.71 398.99Z" />
			<path id="Layer" fill-rule="evenodd" class="shp3" d="M97.15 399.64C97.07 400.14 97.11 400.9 97.11 401.76C97.11 402.7 97.15 403.74 97.22 405.04C96.78 405.51 96.6 405.94 96.68 406.34C96.71 406.84 97.07 407.31 97.47 407.6C97.76 407.92 98.23 408.53 98.73 408.32C99.23 408.24 99.77 407.81 100.49 407.02C100.31 407.52 100.1 407.96 99.7 408.32C99.16 408.75 98.55 409.32 98.01 409.22C97.33 409.22 96.71 408.5 96.32 408.03C96 407.63 95.71 407.06 95.85 406.44C95.96 405.9 96.1 405.26 96.68 404.64C96.83 402.99 96.97 401.33 97.15 399.64L97.15 399.64Z" />
			<path id="Layer" fill-rule="evenodd" class="shp3" d="M108.88 400.39C108.7 400.89 108.74 401.65 108.59 402.51C108.45 403.45 108.34 404.49 108.27 405.79C107.73 406.22 107.62 406.58 107.55 407.01C107.51 407.48 107.76 408.02 108.16 408.35C108.41 408.71 108.81 409.32 109.35 409.21C109.82 409.14 110.5 408.92 111.25 408.17C111.07 408.63 110.72 409.07 110.32 409.32C109.74 409.68 109.09 410.18 108.52 410C107.87 409.89 107.26 409.21 106.97 408.63C106.72 408.2 106.5 407.55 106.72 406.98C106.9 406.51 107.11 405.83 107.76 405.32C108.12 403.7 108.49 402.05 108.88 400.39L108.88 400.39Z" />
			<path id="Layer" fill-rule="evenodd" class="shp1" d="M71.91 69.59L59.56 69.7C59.13 70.42 58.66 70.6 58.3 70.63C57.94 70.56 57.55 70.35 57.26 69.59C56.32 69.37 55.71 69.66 55.28 70.06C54.77 70.63 55.17 71.64 54.67 72.51C54.09 73.51 53.12 74.81 51.89 75.28C50.53 75.85 48.62 76.14 46.75 75.17C44.73 74.16 41.71 71.43 40.59 69.34C39.4 67.36 39.44 65.56 40.12 63.54C40.84 61.71 42.68 59.15 44.66 57.96C46.42 56.88 49.37 56.2 51.17 56.88C52.94 57.75 54.31 61.56 55.28 62.5C56.11 63.4 56.57 63.4 56.54 62.36C56.72 62.1 57.08 61.99 57.47 62.03C57.83 62.14 58.34 62.36 58.99 62.82L71.08 62.71C71.33 64.95 71.62 67.25 71.91 69.56L71.91 69.59Z" />
			<path id="Layer" fill-rule="evenodd" class="shp1" d="M71.33 50.51L57.11 50.51C56.47 49.9 55.89 49.65 55.39 49.9C54.81 50.19 54.31 50.98 53.87 52.13C52.4 51.09 50.71 50.44 48.51 50.04C46.35 49.75 42.35 50.55 40.95 50.04C39.33 49.61 39.47 48.39 39.44 47.34C39.26 46.41 39.37 44.93 40.59 44.43C41.85 44.21 44.41 45.29 46.75 45.04C48.94 44.75 51.32 43.89 53.87 42.45C54.2 43.09 54.63 43.49 55.03 43.63C55.42 43.78 55.89 43.74 56.43 43.38L71.08 43.38L71.66 49.68L71.33 50.51L71.33 50.51Z" />
			<path id="Layer" fill-rule="evenodd" class="shp1" d="M90.16 59.69L104.38 59.69C104.99 59.04 105.57 58.9 106.11 59.11C106.65 59.44 107.16 60.12 107.62 61.31C109.06 60.26 110.76 59.62 112.99 59.22C115.04 58.93 119.03 59.72 120.55 59.22C122.06 58.9 121.92 57.46 122.06 56.56C122.13 55.62 122.02 54.14 120.91 53.64C119.54 53.32 116.98 54.58 114.75 54.22C112.52 53.93 110.15 53.03 107.62 51.66C107.26 52.27 106.83 52.7 106.47 52.81C106.04 52.99 105.57 52.92 105.07 52.59L90.42 52.59L89.81 58.86L90.17 59.7L90.16 59.69Z" />
			<path id="Layer" fill-rule="evenodd" class="shp1" d="M88.22 44.1L100.57 44.21C100.96 44.93 101.43 45.11 101.83 45.14C102.22 45.07 102.58 44.86 102.91 44.1C103.81 43.88 104.42 44.17 104.89 44.57C105.32 45.14 104.82 46.15 105.46 47.02C105.93 48.02 106.9 49.32 108.23 49.79C109.49 50.36 111.44 50.65 113.38 49.68C115.29 48.67 118.31 45.94 119.54 43.85C120.65 41.87 120.58 40.07 120 38.05C119.18 36.14 117.34 33.62 115.47 32.44C113.6 31.28 110.68 30.74 108.95 31.39C107.15 32.15 105.75 36.14 104.89 36.97C103.95 37.94 103.52 37.91 103.59 36.86C103.37 36.54 103.01 36.47 102.65 36.5C102.22 36.57 101.72 36.9 101.14 37.33L89.04 37.22C88.82 39.48 88.53 41.79 88.24 44.09L88.22 44.1Z" />
		</g>
	</g>
</svg>